<?xml version="1.0" ?>
<svg xmlns="http://www.w3.org/2000/svg" width="360" height="220" viewBox="0 0 360 220">
  <g>
    <path d="M145.715,140.258C154.996,140.258 161.254,135.477 161.254,128.41C161.254,123.875 158.828,121.063 153.414,119.059L153.414,118.426C158.301,117.125 161.535,113.223 161.535,108.652C161.535,103.836 158.336,100.742 150.848,98.246L144.836,96.207C141.145,95.012 139.668,93.746 139.668,91.707C139.668,89 142.094,87.172 145.68,87.172C149.125,87.172 151.691,88.895 152.043,91.461L160.867,91.461C160.34,84.5 154.363,80 145.75,80C136.469,80 130.352,84.676 130.352,91.777C130.352,96.172 132.531,99.09 137.559,101.41L137.559,102.043C132.848,103.484 130,107.035 130,111.43C130,116.457 133.164,119.586 140.582,121.977L146.734,124.016C150.426,125.141 151.973,126.441 151.973,128.48C151.973,131.223 149.477,133.051 145.855,133.051C142.34,133.051 139.633,131.258 139.281,128.586L130.387,128.586C130.738,135.547 136.961,140.258 145.715,140.258ZM147.754,115.754L143.922,114.488C140.758,113.574 138.93,111.746 138.93,109.496C138.93,107.105 141.109,104.855 143.852,104.469L147.684,105.77C150.848,106.648 152.641,108.441 152.641,110.727C152.641,113.188 150.531,115.367 147.754,115.754Z" fill="#657887" stroke-width="1" stroke="#00000000"/>
    <path d="M288.279,192.257L234.121,199.849C228.619,200.616 223.532,196.789 222.743,191.29L203.758,56.185C203.388,53.534 204.087,50.845 205.7,48.708C207.313,46.572 209.71,45.165 212.361,44.797L266.519,37.187C269.168,36.814 271.855,37.509 273.991,39.119C276.127,40.729 277.535,43.121 277.907,45.77L296.891,180.85C297.27,183.506 296.574,186.203 294.958,188.344C293.341,190.486 290.937,191.894 288.279,192.257Z" fill="#00000000" stroke-width="3.893" stroke="#4A4A4A"/>
  </g>
  <g>
    <path d="M51,205l190,0l0,-190l-190,0z" fill="#E8F5FF" stroke-width="1" stroke="#00000000"/>
  </g>
  <g>
    <path d="M181.103,172.427l53.996,0l0,-104.598l-53.996,0z" fill="#F7B994" stroke-width="1" stroke="#00000000"/>
  </g>
  <g>
    <path d="M198.662,204.946l103.33,0l0,-172.858l-103.33,0z" fill="#F8F8F8" stroke-width="1" stroke="#00000000"/>
  </g>
  <g>
    <path d="M271.205,224.359l152.971,0l0,-181.463l-152.971,0z" fill="#F7B994" stroke-width="1" stroke="#00000000"/>
  </g>
  <g>
    <path d="M207.745,81.947l70.99,0l0,-35.939l-70.99,0z" fill="#E7E7E7" stroke-width="1" stroke="#00000000"/>
  </g>
  <g>
    <path d="M211.747,138.95l74.986,0l0,-65.944l-74.986,0z" fill="#E7E7E7" stroke-width="1" stroke="#00000000"/>
  </g>
  <g>
    <path d="M219.663,189.139l73.978,0l0,-58.953l-73.978,0z" fill="#E7E7E7" stroke-width="1" stroke="#00000000"/>
  </g>
</svg>
