<?xml version="1.0" ?>
<svg xmlns="http://www.w3.org/2000/svg" width="360" height="220" viewBox="0 0 360 220">
  <g>
    <path d="M185.167,195.45C234.873,195.45 275.167,155.156 275.167,105.45C275.167,55.745 234.873,15.45 185.167,15.45C135.462,15.45 95.167,55.745 95.167,105.45C95.167,155.156 135.462,195.45 185.167,195.45" fill="#F6FBFF" stroke-width="1" stroke="#00000000"/>
    <path d="M113.246,69.829C109.66,71.988 98.095,78.432 86.493,79.284C85.089,79.388 84.001,80.532 84.001,81.915L84.001,123.212C84.001,129.558 87.363,135.446 92.877,138.759C101.794,144.116 111.572,149.18 113.874,150.359C114.189,150.521 114.565,150.521 114.882,150.359C117.185,149.18 126.963,144.116 135.88,138.759C141.393,135.446 144.757,129.558 144.757,123.212L144.757,81.915C144.757,80.532 143.669,79.388 142.264,79.284C130.661,78.432 119.098,71.988 115.51,69.829C115.162,69.619 114.77,69.515 114.379,69.515C113.986,69.515 113.594,69.619 113.246,69.829" fill="#657888" stroke-width="1" stroke="#00000000"/>
    <path d="M109.224,111.945C109.224,113.506 110.128,114.865 111.468,115.594L111.468,120.247C111.468,120.859 111.996,121.355 112.648,121.355L114.776,121.355C115.427,121.355 115.955,120.859 115.955,120.247L115.955,115.594C117.295,114.865 118.2,113.506 118.2,111.945C118.2,109.615 116.191,107.726 113.711,107.726C111.234,107.726 109.224,109.615 109.224,111.945" fill="#657888" stroke-width="1" stroke="#00000000"/>
  </g>
  <g>
    <path d="M89.207,201.411l191.921,0l0,-191.921l-191.921,0z" fill="#F6FBFF" stroke-width="1" stroke="#00000000"/>
  </g>
  <g>
    <path d="M110.532,180.085l149.271,0l0,-149.271l-149.271,0z" fill="#E9F6FF" stroke-width="1" stroke="#00000000"/>
  </g>
  <g>
    <path d="M83.453,150.702l62,0l0,-82l-62,0z" fill="#657888" stroke-width="1" stroke="#00000000"/>
  </g>
  <g>
    <path d="M86.494,79.284C85.089,79.388 84.001,80.532 84.001,81.915L84.001,123.212C84.001,129.557 87.363,135.446 92.877,138.759C101.794,144.116 111.572,149.179 113.874,150.359C114.19,150.521 114.566,150.521 114.883,150.359C117.185,149.179 126.963,144.116 135.88,138.759C141.394,135.446 144.757,129.557 144.757,123.212L144.757,81.915C144.757,80.532 143.669,79.388 142.264,79.284C130.662,78.431 119.098,71.988 115.511,69.829C115.163,69.619 114.77,69.514 114.379,69.514C113.986,69.514 113.595,69.619 113.247,69.829C109.66,71.988 98.096,78.431 86.494,79.284" fill="#657888" stroke-width="1" stroke="#00000000"/>
  </g>
  <g>
    <path d="M83.453,150.702l62,0l0,-82l-62,0z" fill="#657888" stroke-width="1" stroke="#00000000"/>
  </g>
  <g>
    <path d="M79,155.482l70.756,0l0,-90.967l-70.756,0z" fill="#657888" stroke-width="1" stroke="#00000000"/>
  </g>
  <g>
    <path d="M92.503,131.553l42.554,0l0,-46.968l-42.554,0z" fill="#FFFFFF" stroke-width="1" stroke="#00000000"/>
  </g>
  <g>
    <path d="M108.453,121.702l10,0l0,-14l-10,0z" fill="#657888" stroke-width="1" stroke="#00000000"/>
  </g>
  <g>
    <path d="M109.224,111.945C109.224,113.506 110.128,114.865 111.468,115.594L111.468,120.247C111.468,120.859 111.996,121.355 112.648,121.355L114.776,121.355C115.427,121.355 115.955,120.859 115.955,120.247L115.955,115.594C117.295,114.865 118.2,113.506 118.2,111.945C118.2,109.615 116.191,107.726 113.711,107.726C111.234,107.726 109.224,109.615 109.224,111.945" fill="#657888" stroke-width="1" stroke="#00000000"/>
  </g>
  <g>
    <path d="M108.453,121.702l10,0l0,-14l-10,0z" fill="#657888" stroke-width="1" stroke="#00000000"/>
  </g>
  <g>
    <path d="M104.224,126.355l18.976,0l0,-23.629l-18.976,0z" fill="#657888" stroke-width="1" stroke="#00000000"/>
  </g>
  <g>
    <path d="M180.453,59.702l20,0l0,-21l-20,0z" fill="#B7846A" stroke-width="1" stroke="#00000000"/>
  </g>
  <g>
    <path d="M177.492,52.834l28.26,0l0,-36.581l-28.26,0z" fill="#B7846A" stroke-width="1" stroke="#00000000"/>
  </g>
  <g>
    <path d="M166.961,206.341l47.56,0l0,-109.144l-47.56,0z" fill="#DEA8A3" stroke-width="1" stroke="#00000000"/>
  </g>
  <g>
    <path d="M157.866,119.872l18.309,0l0,-24.367l-18.309,0z" fill="#B7846A" stroke-width="1" stroke="#00000000"/>
  </g>
  <g>
    <path d="M161.554,109.785l63.07,0l0,-62.999l-63.07,0z" fill="#B2DBF0" stroke-width="1" stroke="#00000000"/>
  </g>
  <g>
    <path d="M191.343,219.857l19.142,0l0,-25.635l-19.142,0z" fill="#4A4A4A" stroke-width="1" stroke="#00000000"/>
  </g>
  <g>
    <path d="M157.92,216.614l30.105,0l0,-20.437l-30.105,0z" fill="#4A4A4A" stroke-width="1" stroke="#00000000"/>
  </g>
  <g>
    <path d="M177.669,88.729l19.333,0l0,-26.232l-19.333,0z" fill="#4A4A4A" stroke-width="1" stroke="#00000000"/>
  </g>
  <g>
    <path d="M180.832,88.045l22.481,0l0,-18.607l-22.481,0z" fill="#B7846A" stroke-width="1" stroke="#00000000"/>
  </g>
  <g>
    <path d="M153.453,58.264l69.354,0l0,-56.264l-69.354,0z" fill="#000000" stroke-width="1" stroke="#00000000"/>
  </g>
  <g>
    <path d="M190.554,101.253l20.959,0l0,-27.541l-20.959,0z" fill="#B2DBF0" stroke-width="1" stroke="#00000000"/>
  </g>
</svg>
