<?xml version="1.0" ?>
<svg xmlns="http://www.w3.org/2000/svg" width="360" height="220" viewBox="0 0 360 220">
  <g/>
  <g>
    <path d="M51,205l190,0l0,-190l-190,0z" fill="#E8F5FF" stroke-width="1" stroke="#00000000"/>
  </g>
  <g>
    <path d="M105.436,146.411l82,0l0,-72l-82,0z" fill="#657888" stroke-width="1" stroke="#00000000"/>
  </g>
  <g>
    <path d="M288.279,192.257L234.121,199.849C228.619,200.616 223.532,196.789 222.743,191.29L203.758,56.185C203.388,53.534 204.087,50.845 205.7,48.708C207.313,46.572 209.71,45.165 212.361,44.797L266.519,37.187C269.168,36.814 271.855,37.509 273.991,39.119C276.127,40.729 277.535,43.121 277.907,45.77L296.891,180.85C297.27,183.506 296.574,186.203 294.958,188.344C293.341,190.486 290.937,191.894 288.279,192.257Z" fill="#00000000" stroke-width="3.893" stroke="#4A4A4A"/>
  </g>
  <g>
    <path d="M181.103,172.427l53.996,0l0,-104.598l-53.996,0z" fill="#F7B994" stroke-width="1" stroke="#00000000"/>
  </g>
  <g>
    <path d="M198.662,204.946l103.33,0l0,-172.858l-103.33,0z" fill="#F8F8F8" stroke-width="1" stroke="#00000000"/>
  </g>
  <g>
    <path d="M271.205,224.359l152.971,0l0,-181.463l-152.971,0z" fill="#F7B994" stroke-width="1" stroke="#00000000"/>
  </g>
  <g>
    <path d="M207.745,81.947l70.99,0l0,-35.939l-70.99,0z" fill="#E7E7E7" stroke-width="1" stroke="#00000000"/>
  </g>
  <g>
    <path d="M211.747,138.95l74.986,0l0,-65.944l-74.986,0z" fill="#E7E7E7" stroke-width="1" stroke="#00000000"/>
  </g>
  <g>
    <path d="M219.663,189.139l73.978,0l0,-58.953l-73.978,0z" fill="#E7E7E7" stroke-width="1" stroke="#00000000"/>
  </g>
</svg>
