<?xml version="1.0" ?>
<svg xmlns="http://www.w3.org/2000/svg" width="40" height="40" viewBox="0 0 40 40">
  <path d="M20,0L20,0A20,20 0,0 1,40 20L40,20A20,20 0,0 1,20 40L20,40A20,20 0,0 1,0 20L0,20A20,20 0,0 1,20 0z" fill="#0071F0" stroke-width="1" stroke="#00000000"/>
  <path d="M25.7075,16L19.2935,9.586L19.2935,17.586L19.2935,17.586L15.7245,14.016L14.3105,15.431L18.8795,20L14.2925,24.587L15.7065,26.001L19.2935,22.414L19.2935,30.414L25.7075,24L21.7075,20L25.7075,16ZM21.2935,14.414L22.8795,16L21.2935,17.586L21.2935,14.414ZM21.2935,25.586L21.2935,22.414L22.8795,24L21.2935,25.586Z" fill="#FFFFFF" stroke-width="1" stroke="#00000000"/>
</svg>
