<?xml version="1.0" ?>
<svg xmlns="http://www.w3.org/2000/svg" width="100" height="104" viewBox="0 0 100 104">
  <g>
    <path d="M50.6,52.187L49.26,52.181L50.6,52.187Z" fill="#FF395A" stroke-width="1" stroke="#00000000"/>
    <path d="M44.188,110.087L77.777,110.236C81.196,110.249 83.979,107.489 83.996,104.07L84.358,20.296C84.369,16.879 81.611,14.1 78.194,14.084L44.605,13.936C41.192,13.927 38.414,16.683 38.398,20.096L38.026,103.872C38.012,107.29 40.77,110.072 44.188,110.087Z" fill="#00000000" stroke-width="2.32617" stroke="#4A4A4A"/>
    <path d="M78.085,72.39C78.085,75.677 75.421,78.343 72.133,78.343C68.846,78.343 66.182,75.677 66.182,72.39C66.182,69.103 68.846,66.438 72.133,66.438C75.421,66.438 78.085,69.103 78.085,72.39" fill="#2F854B" stroke-width="1" stroke="#00000000"/>
    <path d="M47.174,66.321L75.769,66.321A2.66,2.66 0,0 1,78.429 68.981L78.429,75.631A2.66,2.66 0,0 1,75.769 78.291L47.174,78.291A2.66,2.66 0,0 1,44.514 75.631L44.514,68.981A2.66,2.66 0,0 1,47.174 66.321z" fill="#0088B2" stroke-width="1" stroke="#00000000"/>
    <path d="M63.64,75.517L63.634,75.517C62.566,75.482 61.314,74.447 60.452,73.584C59.588,72.721 58.553,71.47 58.52,70.407C58.508,70.033 59.423,69.369 59.433,69.363C59.671,69.198 59.934,69.257 60.042,69.406C60.115,69.508 60.81,70.559 60.885,70.679C60.963,70.802 60.952,70.987 60.854,71.172C60.801,71.274 60.622,71.589 60.538,71.736C60.628,71.864 60.868,72.18 61.362,72.674C61.856,73.168 62.171,73.408 62.3,73.498C62.448,73.414 62.761,73.235 62.864,73.182C63.046,73.085 63.229,73.073 63.354,73.15C63.482,73.227 64.531,73.925 64.627,73.992C64.709,74.049 64.76,74.147 64.771,74.261C64.781,74.376 64.745,74.498 64.672,74.604C64.666,74.613 64.01,75.517 63.64,75.517" fill="#FFFFFF" stroke-width="1" stroke="#00000000"/>
    <path d="M78.373,42.775C78.373,52.126 70.792,59.706 61.442,59.706C52.092,59.706 44.512,52.126 44.512,42.775C44.512,33.424 52.092,25.844 61.442,25.844C70.792,25.844 78.373,33.424 78.373,42.775" fill="#E7E7E7" stroke-width="1" stroke="#00000000"/>
    <path d="M46.27,29.97L44.198,23.691C44.104,23.405 44.133,23.096 44.28,22.834C45.127,21.321 47.43,15.955 46.475,11.496C45.438,6.663 39.887,-0.341 26.811,1.094C13.736,2.531 12.675,14.22 12.675,14.22C12.675,14.22 11.903,20.041 17.104,24.51C22.207,28.896 30.506,29.646 36.571,28.081C36.796,28.023 37.031,28.038 37.246,28.127L44.84,31.295C45.688,31.649 46.558,30.842 46.27,29.97" fill="#E7E7E7" stroke-width="1" stroke="#00000000"/>
    <path d="M41.64,11.508L37.594,11.508C37.292,11.508 37.047,11.735 37.047,12.016L37.047,18.374C37.047,18.655 37.292,18.883 37.594,18.883L41.64,18.883C41.942,18.883 42.187,18.655 42.187,18.374L42.187,12.016C42.187,11.735 41.942,11.508 41.64,11.508" fill="#657887" stroke-width="1" stroke="#00000000"/>
    <path d="M35.088,11.508L31.043,11.508C30.741,11.508 30.495,11.735 30.495,12.016L30.495,18.374C30.495,18.655 30.741,18.883 31.043,18.883L35.088,18.883C35.391,18.883 35.636,18.655 35.636,18.374L35.636,12.016C35.636,11.735 35.391,11.508 35.088,11.508" fill="#657887" stroke-width="1" stroke="#00000000"/>
    <path d="M28.537,11.508L24.492,11.508C24.189,11.508 23.944,11.735 23.944,12.016L23.944,18.374C23.944,18.655 24.189,18.883 24.492,18.883L28.537,18.883C28.839,18.883 29.085,18.655 29.085,18.374L29.085,12.016C29.085,11.735 28.839,11.508 28.537,11.508" fill="#657887" stroke-width="1" stroke="#00000000"/>
    <path d="M21.986,11.508L17.94,11.508C17.638,11.508 17.393,11.735 17.393,12.016L17.393,18.374C17.393,18.655 17.638,18.883 17.94,18.883L21.986,18.883C22.288,18.883 22.533,18.655 22.533,18.374L22.533,12.016C22.533,11.735 22.288,11.508 21.986,11.508" fill="#657887" stroke-width="1" stroke="#00000000"/>
  </g>
  <g>
    <path d="M98.687,25.192l-33.422,4.546l8.732,64.192l33.422,-4.547z" fill="#F7B994" stroke-width="1" stroke="#00000000"/>
  </g>
  <g>
    <path d="M85.707,4.902l-63.414,8.626l14.383,105.741l63.414,-8.626z" fill="#FFFFFF" stroke-width="1" stroke="#00000000"/>
  </g>
  <g>
    <path d="M48.498,15.462l-79.473,14.719l13.781,138.371l79.473,-14.718z" fill="#F7B994" stroke-width="1" stroke="#00000000"/>
  </g>
  <g>
    <path d="M144.294,129.682C144.159,127.781 144.14,124.291 143.319,118.918C143.277,118.641 143.233,118.367 143.189,118.097C142.743,115.431 142.14,112.962 141.035,108.439C139.4,101.748 138.752,100.332 137.583,98.9C136.234,97.245 128.465,88.538 121.63,88.656C120.136,88.682 119.01,89.227 117.844,90.168C117.104,90.763 113.406,87.107 112.26,86.583C109.211,85.189 107.931,88.586 107.418,89.384C106.707,90.492 110.03,96.789 107.418,98.9C104.807,101.011 101.679,97.697 98.644,96.477C95.61,95.256 92.96,92.504 92.402,91.85L75.518,72.037C75.484,71.984 73.034,69.269 71.468,69.404C69.677,69.559 68.673,71.11 68.479,71.427C68.479,71.427 67.61,72.851 67.883,74.988C68.257,77.916 78.08,91.353 87.598,104.749C89.283,107.121 90.355,114.269 90.832,117.323C91.486,121.512 98.079,141.127 107.223,145.309C107.223,145.309 111.852,146.923 117.022,149.348C119.915,150.705 123.785,153.15 127.778,157.921C127.796,157.94 127.813,157.958 127.831,157.976C129.737,159.724 133.442,164.113 133.925,163.872C137.947,161.862 155.375,160.521 158.343,147.984C158.374,147.857 158.468,147.755 158.384,147.656" fill="#F7B994" stroke-width="1" stroke="#00000000"/>
  </g>
  <g>
    <path d="M64.76,46.928C64.76,46.928 64.756,47.086 64.759,47.352C65.39,46.62 65.809,45.67 66.087,44.766C66.148,44.559 66.233,44.251 66.337,43.812C66.338,43.806 66.339,43.802 66.339,43.797C66.367,43.668 66.586,42.024 66.619,41.879C66.68,41.604 66.774,41.408 66.877,41.253C66.789,41.242 66.735,41.231 66.735,41.231C64.196,44.607 61.491,45.418 61.491,45.418C61.175,45.946 59.374,46.561 59.427,45.717C59.479,44.872 61.221,44.877 61.221,44.877C61.607,44.908 63.654,43.795 64.736,42.714C65.818,41.632 66.472,40.756 66.472,40.756C66.271,40.378 66.129,40.035 66.035,39.722C65.346,39.811 64.596,39.599 64.196,39.198C63.591,38.593 63.73,37.921 63.114,37.305C60.68,34.871 57.322,37.731 55.542,37.846C55.456,37.851 55.374,37.846 55.293,37.839C55.266,38.007 55.242,38.177 55.226,38.349C54.73,43.525 56.566,45.746 57.813,46.92C58.434,47.504 59.116,47.788 59.712,48.035C59.75,47.947 59.787,47.867 59.823,47.803L64.76,46.928Z" fill="#F3B590" stroke-width="1" stroke="#00000000"/>
  </g>
  <g>
    <path d="M63.925,52.99C64.842,52.44 65.225,51.565 65.301,51.37C65.291,51.326 65.281,51.28 65.267,51.235C64.839,49.857 64.767,48.134 64.759,47.352C64.756,47.086 64.76,46.928 64.76,46.928L59.823,47.803C59.786,47.867 59.75,47.947 59.712,48.035C59.372,48.832 58.995,50.483 58.702,50.857C58.688,50.876 58.685,50.895 58.683,50.912L58.815,51.651C59.057,52.719 61.221,54.612 63.925,52.99" fill="#F3B590" stroke-width="1" stroke="#00000000"/>
  </g>
  <g>
    <path d="M75.057,55.383C72.654,53.39 65.317,51.33 65.317,51.33C65.317,51.33 65.312,51.345 65.302,51.37C65.225,51.566 64.842,52.439 63.925,52.99C61.22,54.613 59.057,52.72 58.814,51.651L58.683,50.913L58.677,50.879C58.677,50.879 51.191,52.624 49.007,55.256C48.118,56.327 47.594,57.08 46.952,62.203L76.924,62.203L76.924,60.64C76.618,58.393 76.064,56.218 75.057,55.383" fill="#898995" stroke-width="1" stroke="#00000000"/>
  </g>
  <g>
    <path d="M69.137,39.278C69.207,41.401 67.4,41.321 66.877,41.253C66.773,41.407 66.681,41.604 66.619,41.878C66.587,42.025 66.367,43.667 66.339,43.798C66.339,43.799 66.338,43.802 66.338,43.803C66.338,43.806 66.338,43.809 66.337,43.811C66.233,44.252 66.148,44.56 66.087,44.767C66.016,45.002 65.976,45.106 65.976,45.106C67.026,44.911 70.713,39.598 69.618,36.587C68.576,33.725 66.33,32.062 65.057,31.416C66.908,33.578 67.441,36.764 67.441,36.764C68.252,36.764 69.063,37.034 69.137,39.278" fill="#352525" stroke-width="1" stroke="#00000000"/>
  </g>
  <g>
    <path d="M63.114,37.305C63.73,37.922 63.591,38.593 64.195,39.198C64.596,39.599 65.346,39.811 66.035,39.722C65.417,37.696 66.762,36.983 66.762,36.983C66.359,34.871 65.006,32.708 64.101,31.843C63.624,31.387 63.025,30.889 61.287,30.735C60.42,30.659 59.892,30.91 59.414,31.043C59.057,31.142 58.53,31.249 58.223,31.309C58.194,31.326 58.163,31.339 58.129,31.345C57.719,31.42 56.147,31.682 55.39,31.468C55.207,31.417 55.031,31.559 55.056,31.746C55.082,31.947 55.121,32.169 55.181,32.342C55.236,32.503 55.116,32.671 54.947,32.676C54.147,32.704 52.559,32.669 52.332,32.669C52.086,32.669 52.484,33.395 53.032,33.876C53.216,34.038 53.098,34.337 52.853,34.328C52.847,34.327 52.841,34.327 52.835,34.327C52.632,34.317 52.499,34.533 52.599,34.709C53.115,35.616 53.881,37.701 55.293,37.839C55.374,37.847 55.457,37.851 55.542,37.846C57.322,37.731 60.679,34.871 63.114,37.305" fill="#352525" stroke-width="1" stroke="#00000000"/>
  </g>
  <g>
    <path d="M61.287,30.735C63.025,30.889 63.623,31.387 64.101,31.843C65.007,32.708 66.358,34.871 66.762,36.983C66.762,36.983 65.418,37.696 66.034,39.722C66.13,40.035 66.271,40.378 66.472,40.756C66.472,40.756 65.818,41.632 64.736,42.714C63.655,43.796 61.606,44.909 61.22,44.877C61.22,44.877 59.48,44.872 59.426,45.716C59.373,46.561 61.175,45.946 61.491,45.418C61.491,45.418 64.195,44.607 66.735,41.231C66.735,41.231 66.789,41.242 66.877,41.253C67.401,41.321 69.207,41.401 69.137,39.278C69.063,37.035 68.251,36.764 67.44,36.764C67.44,36.764 66.909,33.579 65.057,31.415C65.04,31.395 65.024,31.375 65.007,31.355C63.747,29.916 61.782,29.227 60.139,29.733C59.044,30.07 57.975,31.355 57.975,31.355C57.975,31.355 58.074,31.337 58.224,31.309C58.531,31.249 59.057,31.142 59.414,31.043C59.891,30.91 60.419,30.659 61.287,30.735" fill="#C36A61" stroke-width="1" stroke="#00000000"/>
  </g>
</svg>
